<svg aria-hidden="true" style="position: absolute; width: 0; height: 0; overflow: hidden;" version="1.1"
  xmlns="http://www.w3.org/2000/svg"
  xmlns:xlink="http://www.w3.org/1999/xlink">
  <defs>
    <symbol id="cross" viewBox="0 0 24 24">
      <path d="M18 6L6 18" stroke="#121417" stroke-width="1.8" stroke-linecap="round" stroke-linejoin="round"></path>
      <path d="M6 6L18 18" stroke="#121417" stroke-width="1.8" stroke-linecap="round" stroke-linejoin="round"></path>
    </symbol>
    <symbol id="arrowDown" viewBox="0 0 20 20">
      <path d="M5 7.5L10 12.5L15 7.5" stroke="#121417" stroke-width="2" stroke-linecap="round" stroke-linejoin="round"></path>
    </symbol>
    <symbol id="heart" viewBox="0 0 32 32">
      <path d="M12 27.667c0 1.473-1.194 2.667-2.667 2.667s-2.667-1.194-2.667-2.667c0-1.473 1.194-2.667 2.667-2.667s2.667 1.194 2.667 2.667z"></path>
      <path d="M30.667 27.667c0 1.473-1.194 2.667-2.667 2.667s-2.667-1.194-2.667-2.667c0-1.473 1.194-2.667 2.667-2.667s2.667 1.194 2.667 2.667z"></path>
      <path d="M10.667 10.333h6.667c0.736 0 1.333 0.597 1.333 1.333v6.667c0 0.736-0.597 1.333-1.333 1.333h-6.667c-0.736 0-1.333-0.597-1.333-1.333v-6.667c0-0.736 0.597-1.333 1.333-1.333z"></path>
      <path d="M22 10.333h6.667c0.736 0 1.333 0.597 1.333 1.333v6.667c0 0.736-0.597 1.333-1.333 1.333h-6.667c-0.736 0-1.333-0.597-1.333-1.333v-6.667c0-0.736 0.597-1.333 1.333-1.333z"></path>
      <path d="M16 1.667h8c0.736 0 1.333 0.597 1.333 1.333v4c0 0.736-0.597 1.333-1.333 1.333h-8c-0.736 0-1.333-0.597-1.333-1.333v-4c0-0.736 0.597-1.333 1.333-1.333z"></path>
      <path d="M30.667 21.667h-23.333v-16c0-0.019-0.011-0.036-0.012-0.055s0.012-0.036 0.012-0.056c-0.002-1.043-0.846-1.888-1.889-1.889h-4.111c-0.736 0-1.333 0.597-1.333 1.333s0.597 1.333 1.333 1.333v0h3.333v15.333c0 1.473 1.194 2.667 2.667 2.667v0h23.333c0.736 0 1.333-0.597 1.333-1.333s-0.597-1.333-1.333-1.333v0z"></path>
    </symbol>
    <symbol id="carKey" viewBox="0 0 32 32">
      <path fill="#434a54" style="fill: var(--color1, #434a54)" d="M5.333 23.983c-0.1 0-0.202-0.021-0.298-0.070-0.329-0.164-0.462-0.564-0.297-0.895 0.264-0.531 0.84-2.082 1.137-4.154 0.218-1.52 0.263-3.095 0.132-4.683-0.162-1.986-0.601-3.999-1.302-5.983-0.122-0.348 0.060-0.729 0.407-0.851 0.347-0.123 0.728 0.059 0.851 0.406 0.744 2.107 1.207 4.248 1.377 6.362 0.136 1.696 0.084 3.379-0.154 5.003-0.408 2.785-1.221 4.43-1.256 4.498-0.116 0.232-0.352 0.367-0.597 0.367z"></path>
      <path fill="#ed5564" style="fill: var(--color2, #ed5564)" d="M24 1.359h-17.333c-0.222 0-0.429 0.11-0.553 0.295l-4 5.948c-0.151 0.226-0.151 0.52 0 0.744l4 5.949c0.124 0.184 0.331 0.294 0.553 0.294h17.333c0.368 0 0.666-0.298 0.666-0.666v-11.897c0-0.368-0.298-0.667-0.666-0.667z"></path>
      <path fill="#f6bb42" style="fill: var(--color3, #f6bb42)" d="M26.014 28.676c-0.131 0-0.261-0.039-0.373-0.113l-1.646-1.113-1.63 1.066c-0.222 0.145-0.508 0.145-0.73 0l-1.631-1.066-1.635 1.088c-0.244 0.164-0.566 0.146-0.793-0.039l-1.36-1.119-7.507-0.076c-0.177-0.002-0.346-0.074-0.469-0.201s-0.191-0.297-0.188-0.475l0.092-6.668c0.005-0.365 0.302-0.658 0.667-0.658v0l18.522 0.008c0.178 0 0.347 0.070 0.472 0.195l4 4.008c0.203 0.203 0.253 0.514 0.125 0.77l-1.334 2.666c-0.064 0.127-0.165 0.23-0.292 0.295l-3.986 1.361c-0.096 0.049-0.199 0.072-0.304 0.072z"></path>
      <path fill="#ffce54" style="fill: var(--color4, #ffce54)" d="M12.591 18.194c-1.366-1.404-3.197-2.192-5.156-2.218-0.034-0.001-0.068-0.001-0.103-0.001-1.937 0-3.765 0.75-5.145 2.11-1.383 1.363-2.158 3.182-2.186 5.123-0.026 1.959 0.711 3.811 2.077 5.215 1.365 1.402 3.196 2.191 5.155 2.219 0.034 0 0.068 0 0.103 0 1.938 0 3.765-0.75 5.146-2.109 1.383-1.363 2.158-3.182 2.186-5.123 0.026-1.959-0.711-3.811-2.076-5.215z"></path>
      <path fill="#080808" style="fill: var(--color5, #080808)" d="M5.805 22.846c0.26 0.26 0.26 0.682 0 0.941-0.261 0.262-0.683 0.262-0.943 0-0.26-0.26-0.26-0.682 0-0.941 0.261-0.262 0.683-0.262 0.943 0z"></path>
      <path fill="#ffce54" style="fill: var(--color4, #ffce54)" d="M30.279 21.983h-9.613c-0.367 0-0.666 0.299-0.666 0.668 0 0.367 0.299 0.666 0.666 0.666h10.943l-1.33-1.334z"></path>
      <path fill="#656d78" style="fill: var(--color6, #656d78)" d="M5.335 23.983c-0.248 0-0.485-0.137-0.601-0.375-0.84-1.729-1.362-3.643-1.554-5.689-0.15-1.626-0.094-3.34 0.171-5.094 0.448-2.98 1.334-5.030 1.371-5.116 0.147-0.338 0.541-0.491 0.878-0.344 0.338 0.146 0.492 0.54 0.345 0.877-0.009 0.020-0.862 2.003-1.281 4.819-0.245 1.643-0.296 3.243-0.153 4.758 0.178 1.877 0.656 3.629 1.423 5.207 0.161 0.33 0.023 0.73-0.308 0.891-0.094 0.045-0.193 0.066-0.291 0.066z"></path>
      <path fill="#f5f7fa" style="fill: var(--color7, #f5f7fa)" d="M21.464 6.655l-3.073-0.613-1.168-1.768c-0.123-0.188-0.332-0.3-0.556-0.3h-4.668c-0.225 0-0.434 0.112-0.557 0.3l-1.122 1.7h-1.653c-0.368 0-0.666 0.299-0.666 0.667v3.333c0 0.368 0.298 0.667 0.666 0.667h12.666c0.368 0 0.667-0.299 0.667-0.667v-2.665c0-0.318-0.225-0.592-0.536-0.654z"></path>
      <path fill="#434a54" style="fill: var(--color1, #434a54)" d="M12.001 8.974c-0.919 0-1.667 0.748-1.667 1.667s0.748 1.667 1.667 1.667c0.919 0 1.666-0.748 1.666-1.667s-0.747-1.667-1.666-1.667z"></path>
      <path fill="#434a54" style="fill: var(--color1, #434a54)" d="M18 8.974c-0.919 0-1.667 0.748-1.667 1.667s0.748 1.667 1.667 1.667c0.919 0 1.666-0.748 1.666-1.667s-0.747-1.667-1.666-1.667z"></path>
    </symbol>
    <symbol id="iconn" viewBox="0 0 32 32">
      <path fill="#1b3954" style="fill: var(--color1, #1b3954)" d="M21.564 8.657c-0.028 0-0.058-0.003-0.086-0.009s-0.055-0.014-0.082-0.025c-0.026-0.011-0.052-0.024-0.075-0.040-0.024-0.016-0.047-0.034-0.067-0.054-0.081-0.081-0.128-0.194-0.128-0.309s0.047-0.228 0.128-0.309c0.020-0.020 0.043-0.039 0.067-0.054 0.023-0.016 0.049-0.029 0.075-0.040s0.054-0.019 0.082-0.025c0.057-0.012 0.115-0.012 0.171 0 0.028 0.006 0.056 0.014 0.082 0.025s0.052 0.024 0.076 0.040 0.046 0.034 0.066 0.054c0.020 0.020 0.039 0.043 0.054 0.066s0.029 0.049 0.040 0.076c0.011 0.026 0.019 0.054 0.025 0.082s0.009 0.057 0.009 0.086-0.003 0.057-0.009 0.086c-0.006 0.027-0.014 0.056-0.025 0.082s-0.024 0.052-0.040 0.076-0.034 0.046-0.054 0.066c-0.020 0.020-0.043 0.039-0.066 0.054s-0.049 0.029-0.076 0.040c-0.026 0.011-0.054 0.019-0.082 0.025s-0.057 0.009-0.086 0.009z"></path>
      <path fill="#1b3954" style="fill: var(--color1, #1b3954)" d="M11.786 7.049c-0.116 0-0.227-0.046-0.309-0.128l-1.404-1.404c-0.171-0.171-0.171-0.448 0-0.619l1.169-1.169c0.082-0.082 0.193-0.128 0.309-0.128s0.227 0.046 0.309 0.128l1.404 1.404c0.171 0.171 0.171 0.448 0 0.619l-1.169 1.169c-0.082 0.082-0.194 0.128-0.309 0.128zM10.999 5.207l0.786 0.786 0.551-0.551-0.786-0.786-0.551 0.551z"></path>
      <path fill="#16ade1" style="fill: var(--color2, #16ade1)" d="M13.286 10.564c-0.112 0-0.224-0.043-0.309-0.128l-2.261-2.261c-0.306-0.306-0.306-0.805 0-1.111l2.692-2.692c0.306-0.306 0.805-0.306 1.111 0 0 0 0 0 0 0l2.261 2.261c0.082 0.082 0.128 0.193 0.128 0.309s-0.046 0.228-0.128 0.309l-3.185 3.185c-0.086 0.086-0.197 0.128-0.309 0.128zM11.396 7.619l1.889 1.889 2.566-2.566-1.889-1.889-2.566 2.566z"></path>
      <path fill="#1b3954" style="fill: var(--color1, #1b3954)" d="M9.996 5.939c-0.025 0-0.051-0.001-0.076-0.004-0.168-0.019-0.329-0.098-0.454-0.222l-2.054-2.054c-0.124-0.124-0.203-0.286-0.222-0.454-0.022-0.201 0.044-0.395 0.182-0.533l1.644-1.644c0.137-0.137 0.331-0.204 0.533-0.181 0.168 0.019 0.329 0.098 0.454 0.222l2.054 2.054c0.283 0.283 0.301 0.725 0.040 0.986 0 0 0 0 0 0l-1.644 1.644c-0.121 0.12-0.284 0.186-0.457 0.186zM8.137 3.147l1.842 1.842 1.353-1.353-1.842-1.843-1.353 1.353zM11.787 3.8v0 0zM11.478 3.491c0 0-0.001 0.001 0 0v0z"></path>
      <path fill="#1b3954" style="fill: var(--color1, #1b3954)" d="M26.744 22.008c-0.116 0-0.227-0.046-0.309-0.128l-1.404-1.404c-0.171-0.171-0.171-0.448 0-0.619l1.169-1.169c0.082-0.082 0.193-0.128 0.309-0.128s0.227 0.046 0.309 0.128l1.404 1.404c0.171 0.171 0.171 0.448 0 0.619l-1.169 1.169c-0.081 0.082-0.192 0.128-0.309 0.128zM25.959 20.166l0.786 0.786 0.551-0.551-0.786-0.786-0.551 0.551z"></path>
      <path fill="#16ade1" style="fill: var(--color2, #16ade1)" d="M24.332 21.467c-0.21 0-0.407-0.082-0.556-0.23l-2.261-2.261c-0.082-0.082-0.128-0.193-0.128-0.309s0.046-0.227 0.128-0.309l3.185-3.185c0.171-0.171 0.448-0.171 0.619 0l2.261 2.261c0 0 0 0 0 0 0.306 0.306 0.306 0.805 0 1.111l-2.692 2.692c-0.148 0.148-0.346 0.23-0.556 0.23zM22.443 18.666l1.889 1.889 2.566-2.566-1.889-1.889-2.567 2.566zM26.961 18.052v0z"></path>
      <path fill="#1b3954" style="fill: var(--color1, #1b3954)" d="M28.821 24.764c-0.025 0-0.051-0.001-0.076-0.004-0.168-0.019-0.329-0.098-0.454-0.222l-2.054-2.054c-0.124-0.124-0.203-0.286-0.222-0.454-0.022-0.201 0.044-0.395 0.182-0.532l1.644-1.644c0.137-0.137 0.332-0.204 0.532-0.181 0.168 0.019 0.329 0.098 0.454 0.222l2.054 2.054c0.124 0.124 0.203 0.286 0.222 0.454 0.022 0.201-0.044 0.395-0.182 0.532l-1.644 1.644c-0.119 0.119-0.282 0.186-0.456 0.186zM26.962 21.971l1.843 1.843 1.352-1.352-1.843-1.843-1.352 1.352z"></path>
      <path fill="#16ade1" style="fill: var(--color2, #16ade1)" d="M22.016 16.111v0c-0.116 0-0.227-0.046-0.309-0.128l-0.66-0.66c-0.082-0.082-0.128-0.193-0.128-0.309v-0.821l-3.16-3.16h-0.821c-0.116 0-0.227-0.046-0.309-0.128l-0.66-0.66c-0.082-0.082-0.128-0.193-0.128-0.309s0.046-0.227 0.128-0.309l1.593-1.592c0.171-0.171 0.448-0.171 0.619 0l5.739 5.739c0.082 0.082 0.128 0.193 0.128 0.309s-0.046 0.227-0.128 0.309l-1.593 1.592c-0.082 0.082-0.193 0.128-0.309 0.128zM21.794 14.832l0.223 0.223 0.974-0.974-5.12-5.12-0.974 0.974 0.223 0.223h0.821c0.116 0 0.227 0.046 0.309 0.128l3.416 3.416c0.082 0.082 0.128 0.193 0.128 0.309v0.821z"></path>
      <path fill="#1b3954" style="fill: var(--color1, #1b3954)" d="M16.089 13.912c-0.112 0-0.224-0.043-0.309-0.128-0.171-0.171-0.171-0.448 0-0.619l1.125-1.125c0.171-0.171 0.448-0.171 0.619 0s0.171 0.448 0 0.619l-1.125 1.125c-0.085 0.086-0.198 0.128-0.309 0.128z"></path>
      <path fill="#1b3954" style="fill: var(--color1, #1b3954)" d="M17.283 15.106c-0.112 0-0.224-0.043-0.309-0.128-0.171-0.171-0.171-0.448 0-0.619l1.125-1.125c0.171-0.171 0.448-0.171 0.619 0s0.171 0.448 0 0.619l-1.125 1.125c-0.086 0.086-0.198 0.128-0.309 0.128z"></path>
      <path fill="#1b3954" style="fill: var(--color1, #1b3954)" d="M18.476 16.299c-0.112 0-0.224-0.043-0.309-0.128-0.171-0.171-0.171-0.448 0-0.619l1.125-1.125c0.171-0.171 0.448-0.171 0.619 0s0.171 0.448 0 0.619l-1.125 1.125c-0.086 0.085-0.198 0.128-0.309 0.128z"></path>
      <path fill="#1b3954" style="fill: var(--color1, #1b3954)" d="M16.199 21.801c-0.457 0-0.915-0.174-1.263-0.523l-4.264-4.264c-0.696-0.697-0.696-1.83 0-2.526l2.123-2.123c0.088-0.088 0.209-0.134 0.332-0.127s0.239 0.066 0.318 0.162c0.328 0.406 0.503 0.902 0.494 1.399-0.002 0.114 0.041 0.223 0.123 0.304l3.788 3.787c0.081 0.081 0.188 0.125 0.303 0.122 0.495-0.009 0.993 0.166 1.399 0.494 0.096 0.078 0.156 0.193 0.162 0.317s-0.040 0.245-0.128 0.332l-2.123 2.123c-0.349 0.348-0.806 0.523-1.264 0.523zM13.006 13.393l-1.715 1.715c-0.356 0.356-0.356 0.934 0 1.289l4.264 4.264c0.356 0.356 0.934 0.356 1.289 0l1.715-1.715c-0.128-0.041-0.26-0.061-0.389-0.059-0.351 0.006-0.691-0.131-0.939-0.379l-3.787-3.787c-0.248-0.248-0.386-0.59-0.379-0.939 0.002-0.131-0.018-0.262-0.059-0.389z"></path>
      <path fill="#1b3954" style="fill: var(--color1, #1b3954)" d="M8.404 25.905c-0.034 0-0.069-0.004-0.102-0.012-0.134-0.032-0.245-0.126-0.299-0.252l-0.51-1.181-1.181-0.51c-0.126-0.054-0.22-0.166-0.252-0.299s0.001-0.275 0.088-0.381l3.846-4.651c0.154-0.186 0.43-0.212 0.616-0.058s0.213 0.43 0.058 0.616l-3.474 4.201 0.806 0.348c0.103 0.044 0.184 0.126 0.228 0.228l0.348 0.806 5.387-4.455-2.654-2.654c-0.171-0.171-0.171-0.448 0-0.619s0.448-0.171 0.619 0l2.994 2.994c0.087 0.087 0.133 0.207 0.127 0.33s-0.063 0.238-0.158 0.316l-6.207 5.133c-0.079 0.065-0.178 0.1-0.279 0.1z"></path>
      <path fill="#16ade1" style="fill: var(--color2, #16ade1)" d="M5.343 30.6c-0.112 0-0.224-0.043-0.309-0.128l-3.554-3.554c-0.171-0.171-0.171-0.448 0-0.619l3.554-3.554c0.127-0.127 0.318-0.164 0.483-0.093l2.482 1.072c0.102 0.044 0.184 0.126 0.228 0.228l1.072 2.482c0.071 0.164 0.034 0.356-0.092 0.483l-3.554 3.554c-0.085 0.086-0.197 0.128-0.309 0.128zM2.408 26.609l2.935 2.935 3.034-3.034-0.886-2.050-2.050-0.886-3.034 3.035z"></path>
      <path fill="#1b3954" style="fill: var(--color1, #1b3954)" d="M8.356 29.633c-0.179 0-0.347-0.111-0.411-0.288-0.082-0.227 0.035-0.478 0.262-0.561l6.357-2.306c0.227-0.082 0.478 0.035 0.561 0.262s-0.035 0.478-0.262 0.561l-6.357 2.306c-0.049 0.017-0.099 0.026-0.149 0.026z"></path>
      <path fill="#1b3954" style="fill: var(--color1, #1b3954)" d="M16.646 26.631c-0.181 0-0.35-0.113-0.413-0.293-0.080-0.228 0.041-0.477 0.268-0.558l1.306-0.457c0.228-0.080 0.477 0.041 0.558 0.268s-0.041 0.477-0.268 0.558l-1.306 0.457c-0.047 0.017-0.097 0.025-0.144 0.025z"></path>
      <path fill="#1b3954" style="fill: var(--color1, #1b3954)" d="M3.266 22.764c-0.071 0-0.142-0.017-0.208-0.053-0.212-0.115-0.292-0.381-0.177-0.593l2.872-5.308c0.115-0.212 0.381-0.291 0.593-0.176s0.292 0.381 0.177 0.593l-2.872 5.308c-0.079 0.146-0.229 0.229-0.385 0.229z"></path>
      <path fill="#1b3954" style="fill: var(--color1, #1b3954)" d="M1.789 22.131c-0.174 0-0.339-0.104-0.407-0.276l-0.459-1.153c-0.089-0.224 0.021-0.479 0.245-0.568s0.479 0.020 0.568 0.245l0.459 1.153c0.089 0.224-0.021 0.479-0.245 0.568-0.052 0.021-0.107 0.031-0.161 0.031z"></path>
      <path fill="#1b3954" style="fill: var(--color1, #1b3954)" d="M12.227 31.156h-2.782c-0.242 0-0.438-0.196-0.438-0.438s0.196-0.438 0.438-0.438h2.782c0.242 0 0.438 0.196 0.438 0.438s-0.196 0.438-0.438 0.438z"></path>
      <path fill="#1b3954" style="fill: var(--color1, #1b3954)" d="M20.469 20.162c-0.309 0-0.599-0.12-0.817-0.338l-0.532-0.532c-0.037-0.037-0.075-0.071-0.116-0.103-0.249-0.201-0.547-0.306-0.834-0.302-0.351 0.008-0.691-0.131-0.939-0.379l-3.787-3.787c-0.248-0.248-0.386-0.59-0.379-0.939 0.006-0.29-0.101-0.586-0.299-0.832-0.034-0.043-0.068-0.081-0.105-0.117l-0.532-0.532c-0.451-0.451-0.451-1.183 0-1.634l4.881-4.881c0.218-0.218 0.508-0.338 0.817-0.338s0.599 0.12 0.817 0.338l0.531 0.531c0.264 0.264 0.609 0.411 0.95 0.405 0.356-0.004 0.689 0.128 0.939 0.379 0.171 0.171 0.171 0.448 0 0.619s-0.448 0.171-0.619 0c-0.081-0.081-0.186-0.125-0.305-0.122-0.573 0.011-1.154-0.231-1.584-0.661l-0.531-0.531c-0.053-0.053-0.123-0.082-0.198-0.082s-0.145 0.029-0.198 0.082l-4.881 4.881c-0.053 0.053-0.082 0.123-0.082 0.198s0.029 0.145 0.082 0.198l0.532 0.532c0.059 0.059 0.116 0.123 0.169 0.189 0.326 0.404 0.501 0.9 0.492 1.396-0.002 0.114 0.041 0.223 0.123 0.304l3.788 3.788c0.081 0.081 0.188 0.125 0.303 0.122 0.495-0.009 0.993 0.166 1.399 0.494 0.064 0.051 0.127 0.108 0.187 0.167l0.532 0.532c0.053 0.053 0.123 0.082 0.198 0.082s0.145-0.029 0.198-0.082l4.881-4.881c0.053-0.053 0.082-0.124 0.082-0.199s-0.029-0.146-0.082-0.199l-0.531-0.531c-0.431-0.431-0.672-1.008-0.661-1.584 0.002-0.116-0.041-0.224-0.122-0.305l-1.852-1.852c-0.171-0.171-0.171-0.448 0-0.619s0.448-0.171 0.619 0l1.852 1.853c0.251 0.251 0.386 0.584 0.379 0.939-0.006 0.34 0.141 0.686 0.405 0.95l0.531 0.531c0.218 0.218 0.339 0.509 0.339 0.818s-0.12 0.599-0.339 0.818l-4.881 4.881c-0.22 0.217-0.51 0.337-0.818 0.337z"></path>
    </symbol>
  </defs>
</svg>
