<svg aria-hidden="true" style="position: absolute; width: 0; height: 0; overflow: hidden;" version="1.1"
  xmlns="http://www.w3.org/2000/svg"
  xmlns:xlink="http://www.w3.org/1999/xlink">
  <defs>
    <symbol id="cross" viewBox="0 0 24 24">
      <path d="M18 6L6 18" stroke-width="1.8" stroke-linecap="round" stroke-linejoin="round"></path>
      <path d="M6 6L18 18" stroke-width="1.8" stroke-linecap="round" stroke-linejoin="round"></path>
    </symbol>
    <symbol id="arrowDown" viewBox="0 0 20 20">
      <path d="M5 7.5L10 12.5L15 7.5" stroke="#121417" stroke-width="2" stroke-linecap="round" stroke-linejoin="round"></path>
    </symbol>
    <symbol id="heart" viewBox="0 0 32 32">
      <path d="M12 27.667c0 1.473-1.194 2.667-2.667 2.667s-2.667-1.194-2.667-2.667c0-1.473 1.194-2.667 2.667-2.667s2.667 1.194 2.667 2.667z"></path>
      <path d="M30.667 27.667c0 1.473-1.194 2.667-2.667 2.667s-2.667-1.194-2.667-2.667c0-1.473 1.194-2.667 2.667-2.667s2.667 1.194 2.667 2.667z"></path>
      <path d="M10.667 10.333h6.667c0.736 0 1.333 0.597 1.333 1.333v6.667c0 0.736-0.597 1.333-1.333 1.333h-6.667c-0.736 0-1.333-0.597-1.333-1.333v-6.667c0-0.736 0.597-1.333 1.333-1.333z"></path>
      <path d="M22 10.333h6.667c0.736 0 1.333 0.597 1.333 1.333v6.667c0 0.736-0.597 1.333-1.333 1.333h-6.667c-0.736 0-1.333-0.597-1.333-1.333v-6.667c0-0.736 0.597-1.333 1.333-1.333z"></path>
      <path d="M16 1.667h8c0.736 0 1.333 0.597 1.333 1.333v4c0 0.736-0.597 1.333-1.333 1.333h-8c-0.736 0-1.333-0.597-1.333-1.333v-4c0-0.736 0.597-1.333 1.333-1.333z"></path>
      <path d="M30.667 21.667h-23.333v-16c0-0.019-0.011-0.036-0.012-0.055s0.012-0.036 0.012-0.056c-0.002-1.043-0.846-1.888-1.889-1.889h-4.111c-0.736 0-1.333 0.597-1.333 1.333s0.597 1.333 1.333 1.333v0h3.333v15.333c0 1.473 1.194 2.667 2.667 2.667v0h23.333c0.736 0 1.333-0.597 1.333-1.333s-0.597-1.333-1.333-1.333v0z"></path>
    </symbol>
    <symbol id="carKey" viewBox="0 0 32 32">
      <path fill="#434a54" style="fill: var(--color1, #434a54)" d="M5.333 23.983c-0.1 0-0.202-0.021-0.298-0.070-0.329-0.164-0.462-0.564-0.297-0.895 0.264-0.531 0.84-2.082 1.137-4.154 0.218-1.52 0.263-3.095 0.132-4.683-0.162-1.986-0.601-3.999-1.302-5.983-0.122-0.348 0.060-0.729 0.407-0.851 0.347-0.123 0.728 0.059 0.851 0.406 0.744 2.107 1.207 4.248 1.377 6.362 0.136 1.696 0.084 3.379-0.154 5.003-0.408 2.785-1.221 4.43-1.256 4.498-0.116 0.232-0.352 0.367-0.597 0.367z"></path>
      <path fill="#ed5564" style="fill: var(--color2, #ed5564)" d="M24 1.359h-17.333c-0.222 0-0.429 0.11-0.553 0.295l-4 5.948c-0.151 0.226-0.151 0.52 0 0.744l4 5.949c0.124 0.184 0.331 0.294 0.553 0.294h17.333c0.368 0 0.666-0.298 0.666-0.666v-11.897c0-0.368-0.298-0.667-0.666-0.667z"></path>
      <path fill="#f6bb42" style="fill: var(--color3, #f6bb42)" d="M26.014 28.676c-0.131 0-0.261-0.039-0.373-0.113l-1.646-1.113-1.63 1.066c-0.222 0.145-0.508 0.145-0.73 0l-1.631-1.066-1.635 1.088c-0.244 0.164-0.566 0.146-0.793-0.039l-1.36-1.119-7.507-0.076c-0.177-0.002-0.346-0.074-0.469-0.201s-0.191-0.297-0.188-0.475l0.092-6.668c0.005-0.365 0.302-0.658 0.667-0.658v0l18.522 0.008c0.178 0 0.347 0.070 0.472 0.195l4 4.008c0.203 0.203 0.253 0.514 0.125 0.77l-1.334 2.666c-0.064 0.127-0.165 0.23-0.292 0.295l-3.986 1.361c-0.096 0.049-0.199 0.072-0.304 0.072z"></path>
      <path fill="#ffce54" style="fill: var(--color4, #ffce54)" d="M12.591 18.194c-1.366-1.404-3.197-2.192-5.156-2.218-0.034-0.001-0.068-0.001-0.103-0.001-1.937 0-3.765 0.75-5.145 2.11-1.383 1.363-2.158 3.182-2.186 5.123-0.026 1.959 0.711 3.811 2.077 5.215 1.365 1.402 3.196 2.191 5.155 2.219 0.034 0 0.068 0 0.103 0 1.938 0 3.765-0.75 5.146-2.109 1.383-1.363 2.158-3.182 2.186-5.123 0.026-1.959-0.711-3.811-2.076-5.215z"></path>
      <path fill="#080808" style="fill: var(--color5, #080808)" d="M5.805 22.846c0.26 0.26 0.26 0.682 0 0.941-0.261 0.262-0.683 0.262-0.943 0-0.26-0.26-0.26-0.682 0-0.941 0.261-0.262 0.683-0.262 0.943 0z"></path>
      <path fill="#ffce54" style="fill: var(--color4, #ffce54)" d="M30.279 21.983h-9.613c-0.367 0-0.666 0.299-0.666 0.668 0 0.367 0.299 0.666 0.666 0.666h10.943l-1.33-1.334z"></path>
      <path fill="#656d78" style="fill: var(--color6, #656d78)" d="M5.335 23.983c-0.248 0-0.485-0.137-0.601-0.375-0.84-1.729-1.362-3.643-1.554-5.689-0.15-1.626-0.094-3.34 0.171-5.094 0.448-2.98 1.334-5.030 1.371-5.116 0.147-0.338 0.541-0.491 0.878-0.344 0.338 0.146 0.492 0.54 0.345 0.877-0.009 0.020-0.862 2.003-1.281 4.819-0.245 1.643-0.296 3.243-0.153 4.758 0.178 1.877 0.656 3.629 1.423 5.207 0.161 0.33 0.023 0.73-0.308 0.891-0.094 0.045-0.193 0.066-0.291 0.066z"></path>
      <path fill="#f5f7fa" style="fill: var(--color7, #f5f7fa)" d="M21.464 6.655l-3.073-0.613-1.168-1.768c-0.123-0.188-0.332-0.3-0.556-0.3h-4.668c-0.225 0-0.434 0.112-0.557 0.3l-1.122 1.7h-1.653c-0.368 0-0.666 0.299-0.666 0.667v3.333c0 0.368 0.298 0.667 0.666 0.667h12.666c0.368 0 0.667-0.299 0.667-0.667v-2.665c0-0.318-0.225-0.592-0.536-0.654z"></path>
      <path fill="#434a54" style="fill: var(--color1, #434a54)" d="M12.001 8.974c-0.919 0-1.667 0.748-1.667 1.667s0.748 1.667 1.667 1.667c0.919 0 1.666-0.748 1.666-1.667s-0.747-1.667-1.666-1.667z"></path>
      <path fill="#434a54" style="fill: var(--color1, #434a54)" d="M18 8.974c-0.919 0-1.667 0.748-1.667 1.667s0.748 1.667 1.667 1.667c0.919 0 1.666-0.748 1.666-1.667s-0.747-1.667-1.666-1.667z"></path>
    </symbol>
    <symbol id="iconn" viewBox="0 0 32 32">
      <path fill="#1b3954" style="fill: var(--color1, #1b3954)" d="M16.229 26.766c-0.242 0-0.438-0.196-0.438-0.438s0.196-0.438 0.438-0.438c1.728 0 3.352-0.673 4.575-1.896l3.49-3.49c0.695-0.695 0.695-1.826 0-2.521l-1.124-1.124c-0.171-0.171-0.171-0.448 0-0.619s0.448-0.171 0.619 0l1.124 1.124c1.036 1.036 1.036 2.722 0 3.758l-3.49 3.49c-1.388 1.387-3.233 2.152-5.194 2.152z"></path>
      <path fill="#1b3954" style="fill: var(--color1, #1b3954)" d="M22.422 15.932c-0.115 0-0.228-0.047-0.309-0.128-0.020-0.020-0.039-0.043-0.054-0.066s-0.029-0.049-0.040-0.076c-0.011-0.026-0.019-0.054-0.025-0.082s-0.009-0.057-0.009-0.086 0.003-0.057 0.009-0.086c0.006-0.027 0.014-0.055 0.025-0.082s0.024-0.052 0.040-0.076 0.034-0.046 0.054-0.066c0.102-0.101 0.253-0.148 0.395-0.119 0.027 0.006 0.056 0.014 0.082 0.025s0.052 0.024 0.076 0.040c0.024 0.016 0.046 0.034 0.066 0.054s0.038 0.043 0.054 0.066c0.016 0.024 0.029 0.049 0.040 0.076s0.019 0.054 0.025 0.082c0.006 0.028 0.009 0.057 0.009 0.086s-0.003 0.057-0.009 0.086c-0.006 0.028-0.014 0.056-0.025 0.082s-0.024 0.052-0.040 0.076c-0.016 0.024-0.034 0.046-0.054 0.066s-0.043 0.039-0.066 0.054-0.049 0.029-0.076 0.040c-0.026 0.011-0.054 0.019-0.082 0.025s-0.057 0.009-0.086 0.009z"></path>
      <path fill="#1b3954" style="fill: var(--color1, #1b3954)" d="M14.709 28.285c-0.112 0-0.224-0.043-0.309-0.128l-4.802-4.802c-0.171-0.171-0.171-0.448 0-0.619l1.657-1.657v-3.172c0-0.341 0.133-0.662 0.374-0.903l2.813-2.813c0.241-0.241 0.562-0.374 0.903-0.374h1.227l0.517-0.517c0.043-0.043 0.083-0.081 0.123-0.115 1.049-0.926 2.644-0.875 3.635 0.115l0.933 0.933c0.171 0.171 0.171 0.448 0 0.619s-0.448 0.171-0.619 0l-0.933-0.933c-0.664-0.664-1.736-0.698-2.439-0.076-0.002 0.002-0.004 0.003-0.006 0.005-0.023 0.019-0.049 0.044-0.076 0.071l-0.645 0.645c-0.082 0.082-0.193 0.128-0.309 0.128h-1.408c-0.107 0-0.208 0.042-0.284 0.118l-2.813 2.813c-0.076 0.076-0.118 0.177-0.118 0.284v3.353c0 0.116-0.046 0.227-0.128 0.309l-1.476 1.476 4.492 4.492c0.171 0.171 0.171 0.448 0 0.619-0.085 0.086-0.197 0.128-0.309 0.128z"></path>
      <path fill="#16ade1" style="fill: var(--color2, #16ade1)" d="M13.726 31.157c-0.112 0-0.224-0.043-0.309-0.128l-6.829-6.829c-0.171-0.171-0.171-0.448 0-0.619l1.928-1.928c0.171-0.171 0.448-0.171 0.619 0l6.829 6.829c0.171 0.171 0.171 0.448 0 0.619l-1.928 1.928c-0.086 0.085-0.197 0.128-0.309 0.128zM7.515 23.891l6.211 6.211 1.309-1.309-6.211-6.211-1.309 1.309z"></path>
      <path fill="#16ade1" style="fill: var(--color2, #16ade1)" d="M7.707 9.331c-0.115 0-0.228-0.047-0.309-0.128s-0.128-0.194-0.128-0.309c0-0.115 0.047-0.228 0.128-0.309s0.194-0.128 0.309-0.128c0.116 0 0.228 0.047 0.309 0.128s0.128 0.194 0.128 0.309-0.047 0.228-0.128 0.309c-0.081 0.081-0.194 0.128-0.309 0.128z"></path>
      <path fill="#1b3954" style="fill: var(--color1, #1b3954)" d="M10.999 15.427c-0.112 0-0.224-0.043-0.309-0.128l-1.359-1.359c-0.171-0.171-0.171-0.448 0-0.619l5.244-5.244c0.171-0.171 0.448-0.171 0.619 0l1.359 1.359c0.171 0.171 0.171 0.448 0 0.619l-5.244 5.244c-0.086 0.086-0.197 0.128-0.309 0.128zM10.258 13.63l0.741 0.741 4.625-4.625-0.741-0.741-4.625 4.625z"></path>
      <path fill="#1b3954" style="fill: var(--color1, #1b3954)" d="M13.858 15.831c-0.107 0-0.215-0.039-0.299-0.118l-1.684-1.578c-0.086-0.081-0.136-0.194-0.138-0.312s0.044-0.232 0.128-0.316l2.895-2.895c0.171-0.171 0.448-0.171 0.619 0s0.171 0.448 0 0.619l-2.576 2.576 1.046 0.979 0.593-0.593c0.241-0.241 0.562-0.374 0.903-0.374h1.227l0.316-0.316-1.133-1.21c-0.165-0.176-0.156-0.453 0.020-0.618s0.453-0.156 0.618 0.020l1.426 1.523c0.082 0.088 0.124 0.204 0.117 0.323s-0.062 0.231-0.152 0.308c-0.023 0.019-0.049 0.044-0.076 0.071l-0.645 0.645c-0.082 0.082-0.193 0.128-0.309 0.128h-1.408c-0.107 0-0.208 0.042-0.284 0.118l-0.893 0.893c-0.086 0.086-0.198 0.128-0.31 0.128z"></path>
      <path fill="#1b3954" style="fill: var(--color1, #1b3954)" d="M25.454 26.688c-0.108 0-0.215-0.039-0.299-0.118l-1.999-1.872c-0.176-0.165-0.186-0.442-0.020-0.618s0.442-0.186 0.618-0.020l1.69 1.582 1.452-1.451-2.442-2.608-1.938 1.938c-0.171 0.171-0.448 0.171-0.619 0s-0.171-0.448 0-0.619l2.257-2.257c0.084-0.084 0.198-0.129 0.316-0.128s0.231 0.052 0.312 0.138l3.040 3.247c0.161 0.172 0.157 0.441-0.010 0.608l-2.051 2.050c-0.084 0.085-0.196 0.128-0.309 0.128z"></path>
      <path fill="#16ade1" style="fill: var(--color2, #16ade1)" d="M5.884 17.823c0 0 0 0 0 0-0.116 0-0.228-0.046-0.31-0.129l-0.014-0.014c-2.001-2.001-2.001-5.258 0.001-7.259l0.858-0.858c0.171-0.171 0.448-0.171 0.619 0s0.171 0.448 0 0.619l-0.858 0.858c-1.561 1.561-1.654 4.041-0.281 5.712l9.758-9.758-2.716-2.716-3.882 3.882c-0.171 0.171-0.448 0.171-0.619 0s-0.171-0.448 0-0.619l4.191-4.191c0.171-0.171 0.448-0.171 0.619 0l3.334 3.334c0.082 0.082 0.128 0.193 0.128 0.309s-0.046 0.228-0.128 0.309l-10.391 10.391c-0.082 0.082-0.193 0.128-0.309 0.128z"></path>
      <path fill="#16ade1" style="fill: var(--color2, #16ade1)" d="M17.764 8.921c-0.116 0-0.227-0.046-0.309-0.128l-6.129-6.129c-0.171-0.171-0.171-0.448 0-0.619l0.561-0.561c0.855-0.855 2.246-0.855 3.101 0l3.646 3.646c0.414 0.414 0.642 0.965 0.642 1.551s-0.228 1.136-0.642 1.551l-0.561 0.561c-0.082 0.082-0.193 0.128-0.309 0.128zM12.254 2.354l5.51 5.51 0.251-0.251c0.249-0.249 0.386-0.58 0.386-0.932s-0.137-0.683-0.386-0.932l-3.646-3.646c-0.514-0.514-1.35-0.514-1.864 0l-0.251 0.251z"></path>
    </symbol>
  </defs>
</svg>
